<mxfile host="Electron" agent="Mozilla/5.0 (Windows NT 10.0; Win64; x64) AppleWebKit/537.36 (KHTML, like Gecko) draw.io/24.7.5 Chrome/126.0.6478.183 Electron/31.3.0 Safari/537.36" version="24.7.5">
  <diagram name="第 1 页" id="2dcqDVq_5tHm5VvzebaM">
    <mxGraphModel dx="2440" dy="1416" grid="1" gridSize="10" guides="1" tooltips="1" connect="1" arrows="1" fold="1" page="1" pageScale="1" pageWidth="827" pageHeight="1169" math="0" shadow="0">
      <root>
        <mxCell id="0" />
        <mxCell id="1" parent="0" />
        <mxCell id="34MX7YV_wcJZiI4TJLVf-53" value="" style="rounded=0;whiteSpace=wrap;html=1;" vertex="1" parent="1">
          <mxGeometry x="710" y="420" width="620" height="470" as="geometry" />
        </mxCell>
        <mxCell id="34MX7YV_wcJZiI4TJLVf-80" value="&lt;font style=&quot;font-size: 30px;&quot;&gt;ViewMoel&lt;/font&gt;" style="text;html=1;align=center;verticalAlign=middle;resizable=0;points=[];autosize=1;strokeColor=none;fillColor=none;" vertex="1" parent="1">
          <mxGeometry x="942" y="370" width="150" height="50" as="geometry" />
        </mxCell>
        <mxCell id="34MX7YV_wcJZiI4TJLVf-81" value="&lt;font style=&quot;font-size: 20px;&quot;&gt;Logic 1&lt;/font&gt;" style="shape=process;whiteSpace=wrap;html=1;backgroundOutline=1;" vertex="1" parent="1">
          <mxGeometry x="957" y="472" width="120" height="60" as="geometry" />
        </mxCell>
        <mxCell id="34MX7YV_wcJZiI4TJLVf-82" value="&lt;font style=&quot;font-size: 20px;&quot;&gt;Logic 2&lt;/font&gt;" style="shape=process;whiteSpace=wrap;html=1;backgroundOutline=1;" vertex="1" parent="1">
          <mxGeometry x="957" y="560" width="120" height="60" as="geometry" />
        </mxCell>
        <mxCell id="34MX7YV_wcJZiI4TJLVf-83" value="&lt;font style=&quot;font-size: 20px;&quot;&gt;Logic 3&lt;/font&gt;" style="shape=process;whiteSpace=wrap;html=1;backgroundOutline=1;" vertex="1" parent="1">
          <mxGeometry x="957" y="650" width="120" height="60" as="geometry" />
        </mxCell>
        <mxCell id="34MX7YV_wcJZiI4TJLVf-84" value="&lt;font style=&quot;font-size: 20px;&quot;&gt;Logic 4&lt;/font&gt;" style="shape=process;whiteSpace=wrap;html=1;backgroundOutline=1;" vertex="1" parent="1">
          <mxGeometry x="957" y="740" width="120" height="60" as="geometry" />
        </mxCell>
        <mxCell id="34MX7YV_wcJZiI4TJLVf-85" value="" style="rounded=0;whiteSpace=wrap;html=1;" vertex="1" parent="1">
          <mxGeometry x="190" y="420" width="280" height="470" as="geometry" />
        </mxCell>
        <mxCell id="34MX7YV_wcJZiI4TJLVf-86" value="&lt;font style=&quot;font-size: 20px;&quot;&gt;Button&lt;/font&gt;" style="rounded=1;whiteSpace=wrap;html=1;" vertex="1" parent="1">
          <mxGeometry x="275" y="450" width="120" height="60" as="geometry" />
        </mxCell>
        <mxCell id="34MX7YV_wcJZiI4TJLVf-87" value="display 1" style="swimlane;whiteSpace=wrap;html=1;" vertex="1" parent="1">
          <mxGeometry x="240" y="532" width="190" height="78" as="geometry" />
        </mxCell>
        <mxCell id="34MX7YV_wcJZiI4TJLVf-92" value="display 2" style="swimlane;whiteSpace=wrap;html=1;" vertex="1" parent="1">
          <mxGeometry x="235" y="722" width="190" height="78" as="geometry" />
        </mxCell>
        <mxCell id="34MX7YV_wcJZiI4TJLVf-93" value="" style="endArrow=classic;html=1;rounded=0;strokeWidth=3;fillColor=#1ba1e2;strokeColor=#006EAF;" edge="1" parent="1" source="34MX7YV_wcJZiI4TJLVf-86" target="34MX7YV_wcJZiI4TJLVf-81">
          <mxGeometry width="50" height="50" relative="1" as="geometry">
            <mxPoint x="527.5699999999999" y="360" as="sourcePoint" />
            <mxPoint x="298.99857142857155" y="160" as="targetPoint" />
          </mxGeometry>
        </mxCell>
        <mxCell id="34MX7YV_wcJZiI4TJLVf-94" value="" style="endArrow=classic;html=1;rounded=0;entryX=1;entryY=0.5;entryDx=0;entryDy=0;exitX=0;exitY=0.75;exitDx=0;exitDy=0;strokeWidth=3;fillColor=#1ba1e2;strokeColor=#006EAF;" edge="1" parent="1" source="34MX7YV_wcJZiI4TJLVf-81" target="34MX7YV_wcJZiI4TJLVf-87">
          <mxGeometry width="50" height="50" relative="1" as="geometry">
            <mxPoint x="850" y="620" as="sourcePoint" />
            <mxPoint x="900" y="570" as="targetPoint" />
          </mxGeometry>
        </mxCell>
        <mxCell id="34MX7YV_wcJZiI4TJLVf-96" value="" style="endArrow=classic;html=1;rounded=0;entryX=1;entryY=0.5;entryDx=0;entryDy=0;exitX=0;exitY=0.75;exitDx=0;exitDy=0;strokeWidth=3;fillColor=#60a917;strokeColor=#2D7600;" edge="1" parent="1" source="34MX7YV_wcJZiI4TJLVf-83" target="34MX7YV_wcJZiI4TJLVf-92">
          <mxGeometry width="50" height="50" relative="1" as="geometry">
            <mxPoint x="960" y="650" as="sourcePoint" />
            <mxPoint x="1010" y="600" as="targetPoint" />
          </mxGeometry>
        </mxCell>
        <mxCell id="34MX7YV_wcJZiI4TJLVf-97" value="" style="rounded=0;whiteSpace=wrap;html=1;" vertex="1" parent="1">
          <mxGeometry x="1635" y="420" width="285" height="470" as="geometry" />
        </mxCell>
        <mxCell id="34MX7YV_wcJZiI4TJLVf-98" value="&lt;font style=&quot;font-size: 30px;&quot;&gt;Moedl&lt;/font&gt;" style="text;html=1;align=center;verticalAlign=middle;resizable=0;points=[];autosize=1;strokeColor=none;fillColor=none;" vertex="1" parent="1">
          <mxGeometry x="1720" y="370" width="110" height="50" as="geometry" />
        </mxCell>
        <mxCell id="34MX7YV_wcJZiI4TJLVf-99" value="&lt;font style=&quot;font-size: 30px;&quot;&gt;View&lt;/font&gt;" style="text;html=1;align=center;verticalAlign=middle;resizable=0;points=[];autosize=1;strokeColor=none;fillColor=none;" vertex="1" parent="1">
          <mxGeometry x="290" y="370" width="90" height="50" as="geometry" />
        </mxCell>
        <mxCell id="34MX7YV_wcJZiI4TJLVf-104" value="Service 1" style="rounded=0;whiteSpace=wrap;html=1;" vertex="1" parent="1">
          <mxGeometry x="1715" y="470" width="120" height="60" as="geometry" />
        </mxCell>
        <mxCell id="34MX7YV_wcJZiI4TJLVf-106" value="Service 2" style="rounded=0;whiteSpace=wrap;html=1;" vertex="1" parent="1">
          <mxGeometry x="1715" y="610" width="120" height="60" as="geometry" />
        </mxCell>
        <mxCell id="34MX7YV_wcJZiI4TJLVf-107" value="Service 3" style="rounded=0;whiteSpace=wrap;html=1;" vertex="1" parent="1">
          <mxGeometry x="1715" y="750" width="120" height="60" as="geometry" />
        </mxCell>
        <mxCell id="34MX7YV_wcJZiI4TJLVf-108" value="" style="endArrow=classic;html=1;rounded=0;strokeWidth=3;fillColor=#1ba1e2;strokeColor=#006EAF;exitX=1;exitY=0.25;exitDx=0;exitDy=0;entryX=0.008;entryY=0.383;entryDx=0;entryDy=0;entryPerimeter=0;" edge="1" parent="1" source="34MX7YV_wcJZiI4TJLVf-81" target="34MX7YV_wcJZiI4TJLVf-104">
          <mxGeometry width="50" height="50" relative="1" as="geometry">
            <mxPoint x="405" y="492" as="sourcePoint" />
            <mxPoint x="967" y="510" as="targetPoint" />
          </mxGeometry>
        </mxCell>
        <mxCell id="34MX7YV_wcJZiI4TJLVf-109" value="" style="endArrow=classic;html=1;rounded=0;strokeWidth=3;fillColor=#1ba1e2;strokeColor=#006EAF;exitX=0;exitY=0.75;exitDx=0;exitDy=0;entryX=0.975;entryY=0.633;entryDx=0;entryDy=0;entryPerimeter=0;" edge="1" parent="1" source="34MX7YV_wcJZiI4TJLVf-104" target="34MX7YV_wcJZiI4TJLVf-81">
          <mxGeometry width="50" height="50" relative="1" as="geometry">
            <mxPoint x="415" y="502" as="sourcePoint" />
            <mxPoint x="977" y="520" as="targetPoint" />
          </mxGeometry>
        </mxCell>
        <mxCell id="34MX7YV_wcJZiI4TJLVf-110" value="cmd1" style="text;html=1;align=center;verticalAlign=middle;resizable=0;points=[];autosize=1;strokeColor=none;fillColor=none;" vertex="1" parent="1">
          <mxGeometry x="555" y="458" width="50" height="30" as="geometry" />
        </mxCell>
        <mxCell id="34MX7YV_wcJZiI4TJLVf-111" value="data change" style="text;html=1;align=center;verticalAlign=middle;resizable=0;points=[];autosize=1;strokeColor=none;fillColor=none;rotation=-5;" vertex="1" parent="1">
          <mxGeometry x="535" y="530" width="90" height="30" as="geometry" />
        </mxCell>
        <mxCell id="34MX7YV_wcJZiI4TJLVf-112" value="data process" style="text;html=1;align=center;verticalAlign=middle;resizable=0;points=[];autosize=1;strokeColor=none;fillColor=none;" vertex="1" parent="1">
          <mxGeometry x="1375" y="465" width="90" height="30" as="geometry" />
        </mxCell>
        <mxCell id="34MX7YV_wcJZiI4TJLVf-113" value="data change" style="text;html=1;align=center;verticalAlign=middle;resizable=0;points=[];autosize=1;strokeColor=none;fillColor=none;" vertex="1" parent="1">
          <mxGeometry x="1375" y="510" width="90" height="30" as="geometry" />
        </mxCell>
        <mxCell id="34MX7YV_wcJZiI4TJLVf-115" value="" style="endArrow=classic;html=1;rounded=0;entryX=1;entryY=0.75;entryDx=0;entryDy=0;exitX=0;exitY=0.75;exitDx=0;exitDy=0;strokeWidth=3;fillColor=#60a917;strokeColor=#2D7600;" edge="1" parent="1" source="34MX7YV_wcJZiI4TJLVf-107" target="34MX7YV_wcJZiI4TJLVf-83">
          <mxGeometry width="50" height="50" relative="1" as="geometry">
            <mxPoint x="967" y="705" as="sourcePoint" />
            <mxPoint x="435" y="771" as="targetPoint" />
          </mxGeometry>
        </mxCell>
        <mxCell id="34MX7YV_wcJZiI4TJLVf-117" value="data change" style="text;html=1;align=center;verticalAlign=middle;resizable=0;points=[];autosize=1;strokeColor=none;fillColor=none;rotation=-5;" vertex="1" parent="1">
          <mxGeometry x="565" y="710" width="90" height="30" as="geometry" />
        </mxCell>
        <mxCell id="34MX7YV_wcJZiI4TJLVf-122" value="data change" style="text;html=1;align=center;verticalAlign=middle;resizable=0;points=[];autosize=1;strokeColor=none;fillColor=none;rotation=10;" vertex="1" parent="1">
          <mxGeometry x="1410" y="755" width="90" height="30" as="geometry" />
        </mxCell>
        <mxCell id="34MX7YV_wcJZiI4TJLVf-126" value="" style="curved=1;endArrow=classic;html=1;rounded=0;exitX=1;exitY=0.5;exitDx=0;exitDy=0;entryX=1;entryY=0.5;entryDx=0;entryDy=0;dashed=1;dashPattern=8 8;" edge="1" parent="1" source="34MX7YV_wcJZiI4TJLVf-104" target="34MX7YV_wcJZiI4TJLVf-107">
          <mxGeometry width="50" height="50" relative="1" as="geometry">
            <mxPoint x="1200" y="770" as="sourcePoint" />
            <mxPoint x="1250" y="720" as="targetPoint" />
            <Array as="points">
              <mxPoint x="1880" y="550" />
              <mxPoint x="1900" y="670" />
            </Array>
          </mxGeometry>
        </mxCell>
      </root>
    </mxGraphModel>
  </diagram>
</mxfile>
